<svg id="Layer_1" data-name="Layer 1" xmlns="http://www.w3.org/2000/svg" viewBox="0 0 48 48"><defs><style>.cls-1{fill:none;stroke:#000;stroke-linecap:round;stroke-linejoin:round;stroke-width:2px;}</style></defs><title>gear</title><path class="cls-1" d="M44,28V20H38.44A14.89,14.89,0,0,0,37,16.61L41,12.69,35.31,7,31.39,11A14.89,14.89,0,0,0,28,9.56V4H20V9.56A14.89,14.89,0,0,0,16.61,11L12.69,7,7,12.69,11,16.61A14.89,14.89,0,0,0,9.56,20H4v8H9.56A14.89,14.89,0,0,0,11,31.39L7,35.31,12.69,41,16.61,37A14.89,14.89,0,0,0,20,38.44V44h8V38.44A14.89,14.89,0,0,0,31.39,37L35.31,41,41,35.31,37,31.39A14.89,14.89,0,0,0,38.44,28Z"/><circle class="cls-1" cx="24" cy="24" r="10"/><rect class="cls-1" x="-418" y="-146" width="680" height="680"/></svg>